<svg width="264" height="72" viewBox="0 0 264 72" fill="none" xmlns="http://www.w3.org/2000/svg">
<circle cx="132" cy="38.7745" r="29.7745" stroke="#C8EBFA" stroke-width="6"/>
<circle cx="131.699" cy="38.474" r="14.7369" stroke="#C8EBFA" stroke-width="3"/>
<path d="M192.28 37.4836C192.171 39.4368 191.39 40.4133 189.937 40.4133C188.593 40.4133 187.921 39.6399 187.921 38.093C187.921 37.7961 187.898 37.2493 187.851 36.4524L187.78 34.4836C185.312 34.7805 183.335 35.4758 181.851 36.5696C180.46 37.5852 179.304 39.1165 178.382 41.1633L178.429 54.0071C178.429 55.5852 177.655 56.3743 176.109 56.3743C174.734 56.3743 174.046 55.5852 174.046 54.0071V37.554C174.046 37.0383 174.062 36.2649 174.093 35.2336C174.14 34.2024 174.163 33.429 174.163 32.9133C174.163 31.3352 174.851 30.5461 176.226 30.5461C177.757 30.5461 178.53 31.843 178.546 34.4368C181.546 31.5461 184.874 30.1008 188.53 30.1008C189.796 30.1008 190.741 30.5774 191.366 31.5305C191.991 32.4836 192.304 33.9211 192.304 35.843C192.304 36.6555 192.296 37.2024 192.28 37.4836ZM208.054 55.8821C204.523 55.8821 201.663 54.9993 199.476 53.2336C197.085 51.2805 195.89 48.5461 195.89 45.0305C195.89 40.968 196.874 37.5618 198.843 34.8118C200.984 31.8118 203.843 30.3118 207.421 30.3118C210.015 30.3118 212.132 30.7493 213.773 31.6243C215.788 32.7024 216.796 34.3586 216.796 36.593C216.796 38.1555 215.913 39.5774 214.148 40.8586C213.366 41.4211 211.71 42.2961 209.179 43.4836L200.226 47.7258C201.101 49.0227 202.187 49.9993 203.484 50.6555C204.796 51.3118 206.319 51.6399 208.054 51.6399C209.132 51.6399 210.398 51.4368 211.851 51.0305C213.694 50.5149 214.882 49.843 215.413 49.0149C215.944 48.1711 216.515 47.7493 217.124 47.7493C217.671 47.7493 218.155 47.9602 218.577 48.3821C219.015 48.7883 219.234 49.2649 219.234 49.8118C219.234 51.5461 217.835 53.0383 215.038 54.2883C212.648 55.3508 210.319 55.8821 208.054 55.8821ZM207.421 34.5305C205.515 34.5305 203.929 35.2727 202.663 36.7571C201.398 38.2258 200.452 40.4446 199.827 43.4133L207.023 39.9915C209.851 38.6165 211.866 37.4211 213.069 36.4055C211.726 35.1555 209.843 34.5305 207.421 34.5305Z" fill="white"/>
<path d="M50.79 32.8906L47.3681 36.1016L43.1962 40.25L50.8369 50.2344C51.2275 50.7344 51.4228 51.2266 51.4228 51.7109C51.4228 52.3203 51.1884 52.8594 50.7197 53.3281C50.2509 53.7969 49.7197 54.0312 49.1259 54.0312C48.5322 54.0312 47.9931 53.7422 47.5087 53.1641C46.0712 51.4922 43.54 48.2734 39.915 43.5078L35.3447 48.2188C34.4228 49.0469 33.079 50.3359 31.3134 52.0859C30.8134 52.6484 30.2744 52.9297 29.6962 52.9297C29.1025 52.9297 28.5712 52.6953 28.1025 52.2266C27.6494 51.7578 27.4228 51.2188 27.4228 50.6094C27.4228 50.125 27.6181 49.6328 28.0087 49.1328C28.4462 48.5547 29.1259 47.8594 30.0478 47.0469C31.1259 46.0938 31.8369 45.4375 32.1806 45.0781L37.1728 39.8516L34.1025 35.4219C32.8681 33.6562 31.79 32.3672 30.8681 31.5547C30.2744 31.0234 29.9775 30.4453 29.9775 29.8203C29.9775 29.1953 30.1962 28.6406 30.6337 28.1562C31.0869 27.6719 31.6025 27.4297 32.1806 27.4297C33.1025 27.4297 34.4931 28.6328 36.3525 31.0391L40.4072 36.6406L45.0009 32.4219C46.9072 30.625 48.1962 29.2188 48.8681 28.2031C49.3681 27.4688 49.9619 27.1016 50.6494 27.1016C51.2587 27.1016 51.7978 27.3281 52.2665 27.7812C52.7353 28.2344 52.9697 28.7578 52.9697 29.3516C52.9697 30.2109 52.2431 31.3906 50.79 32.8906ZM67.5712 53.8203C66.0087 53.8203 64.29 53.5703 62.415 53.0703L62.3681 64.2734C62.3681 64.9609 62.1494 65.5234 61.7119 65.9609C61.29 66.3984 60.7431 66.6172 60.0712 66.6172C59.3994 66.6172 58.8447 66.3984 58.4072 65.9609C57.9853 65.5234 57.7744 64.9609 57.7744 64.2734L57.8447 54.8984V45.5469C57.7978 42.125 57.6806 39.0078 57.4931 36.1953L57.1415 31.4375C57.1415 30.3281 57.3447 29.3906 57.7509 28.625C58.2197 27.7031 58.8994 27.2422 59.79 27.2422C60.3994 27.2422 60.9072 27.4609 61.3134 27.8984C61.7353 28.3203 61.9462 28.8438 61.9462 29.4688C61.9462 29.6094 61.9228 29.8672 61.8759 30.2422C61.7978 30.7266 61.7431 31.1719 61.7119 31.5781C63.0556 30.6562 64.3525 29.9688 65.6025 29.5156C66.8525 29.0469 68.0478 28.8125 69.1884 28.8125C72.3915 28.8125 74.7353 30.2344 76.2197 33.0781C77.3915 35.3281 77.9775 38.3047 77.9775 42.0078C77.9775 45.3828 77.0712 48.1641 75.2587 50.3516C73.3369 52.6641 70.7744 53.8203 67.5712 53.8203ZM69.1884 33.5C67.7509 33.5 66.454 33.8203 65.2978 34.4609C64.4697 34.9141 63.4228 35.7422 62.1572 36.9453C62.3603 40.4922 62.4619 44.2188 62.4619 48.125C64.165 48.7812 65.8681 49.1094 67.5712 49.1094C69.5244 49.1094 71.0165 48.3828 72.0478 46.9297C72.9384 45.6641 73.3837 44.0234 73.3837 42.0078C73.3837 39.1641 73.0322 37.0391 72.329 35.6328C71.6415 34.2109 70.5947 33.5 69.1884 33.5ZM89.2509 34.5781L88.8994 46.2266C88.8994 47.4609 88.8369 49.2734 88.7119 51.6641C88.5556 53.2266 87.79 54.0078 86.415 54.0078C84.8837 54.0078 84.1181 53.2109 84.1181 51.6172C84.1181 49.7266 84.204 46.8906 84.3759 43.1094C84.5478 39.3125 84.6337 36.4688 84.6337 34.5781C84.6337 32.1094 84.6728 29.2891 84.7509 26.1172C84.829 22.9297 84.8681 20.1016 84.8681 17.6328C84.8681 16.0703 85.6337 15.2891 87.165 15.2891C88.7119 15.2891 89.4853 16.0703 89.4853 17.6328C89.4853 20.1016 89.4462 22.9297 89.3681 26.1172C89.29 29.2891 89.2509 32.1094 89.2509 34.5781Z" fill="white"/>
</svg>
